<svg width="39" height="54" viewBox="0 0 39 54" fill="none" xmlns="http://www.w3.org/2000/svg">
<g clip-path="url(#clip0_52_3608)">
<path d="M15.1159 4.42489C19.0899 8.4082 20.3769 14.0356 19.0147 19.1087C13.9698 20.4333 8.38001 19.1368 4.42488 15.1817C0.45096 11.2078 -0.845495 5.57103 0.526117 0.507336C5.57102 -0.817304 11.1608 0.479152 15.1159 4.43428V4.42489Z" fill="#004D3D"/>
</g>
<g clip-path="url(#clip1_52_3608)">
<path d="M23.2141 13.8195C19.2402 17.8029 17.9531 23.4302 19.3154 28.5033C24.3603 29.828 29.9501 28.5315 33.9052 24.5764C37.8791 20.6025 39.1756 14.9657 37.804 9.90199C32.7591 8.57735 27.1693 9.87381 23.2141 13.8289V13.8195Z" fill="#004D3D"/>
</g>
<path d="M18.5482 18.4014L18.5482 53.5999" stroke="#004D3D"/>
<defs>
<clipPath id="clip0_52_3608">
<rect width="19.5408" height="19.6066" fill="white" transform="matrix(-1 0 0 1 19.5408 0)"/>
</clipPath>
<clipPath id="clip1_52_3608">
<rect width="19.5408" height="19.6066" fill="white" transform="translate(18.7893 9.39465)"/>
</clipPath>
</defs>
</svg>
